<svg width="100" height="100" viewBox="0 0 100 100" xmlns="http://www.w3.org/2000/svg">
  <rect x="0" y="0" width="100" height="100" fill="#263238" />
  <g stroke="#80d8ff" stroke-width="2" fill="#263238">
    <circle cx="60" cy="110" r="30" />
    <g>
      <g>
        <path d="M 45,60 q -5,-15 -5,-25 q 5,0 25,10" />
        <path d="M 75,60 q 5,-15 5,-25 q -5,0 -25,10" />
      </g>
      <circle cx="60" cy="60" r="20" />
      <g>
        <circle cx="50" cy="55" r="1" />
        <circle cx="70" cy="55" r="1" />
      </g>
      <path d="M 55,60 q 0,10 5,5 q 5,5 5,-5" />
    </g>
    <g>
      <g>
        <path d="M 60,80 q -5,-5 -10,-5 q -2,5 0,10 q 5,0 10,-5" />
        <path d="M 60,80 q 5,-5 10,-5 q 2,5 0,10 q -5,0 -10,-5" />
      </g>
      <circle cx="60" cy="80" r="3" />
    </g>
  </g>
</svg>
