<svg width="100" height="100" viewBox="0 0 100 100" xmlns="http://www.w3.org/2000/svg">
  <rect x="0" y="0" width="100" height="100" fill="#263238" />
  <g stroke="#80d8ff" stroke-width="2" fill="#263238">
    <path d="M 60,80 q -30,5 -30,30" />
    <path d="M 60,80 q 30,5 30,30" />
    <g>
      <g>
        <path d="M 45,55 q -5,-10 -3,-20 q 5,0 15,8" />
        <path d="M 75,55 q 5,-10 3,-20 q -5,0 -15,8" />
      </g>
      <circle cx="60" cy="60" r="20" />
      <g>
        <circle cx="52" cy="56" r="2" />
        <circle cx="68" cy="56" r="2" />
      </g>
      <path d="M 60,64 c 0,6 6,4 6,2" />
      <path d="M 60,64 c 0,6 -6,4 -6,2" />
    </g>
    <g>
      <g>
        <path d="M 60,80 q -5,-5 -10,-5 q -2,5 0,10 q 5,0 10,-5" />
        <path d="M 60,80 q 5,-5 10,-5 q 2,5 0,10 q -5,0 -10,-5" />
      </g>
      <circle cx="60" cy="80" r="3" />
    </g>
  </g>
</svg>
